<svg width="189" height="193" viewBox="0 0 189 193" fill="none" xmlns="http://www.w3.org/2000/svg">
<path d="M6.82975 17.6057L0.37085 25.0745H188.371C182.281 16.5016 168.61 13.4924 162.535 13.0594C158.921 13.4924 150.171 13.6439 144.081 10.7864C136.469 7.21442 119.86 10.7864 113.171 10.7864C107.819 10.7864 96.9467 6.45658 92.1794 4.29169C88.1042 3.31747 78.708 1.14171 73.7254 0.232461C68.7429 -0.676785 55.8097 2.55976 49.9659 4.29169C46.352 5.91537 37.0943 9.48745 28.9745 10.7864C20.8547 12.0853 10.8281 15.8738 6.82975 17.6057Z" fill="#323232"/>
<path d="M12.6236 19.9044L6.37085 27.0745H188.371C182.475 18.8445 169.24 15.9557 163.36 15.54C159.861 15.9557 151.39 16.1012 145.495 13.3579C138.125 9.92882 122.047 13.3579 115.571 13.3579C110.39 13.3579 99.8645 9.2013 95.2494 7.123C91.3042 6.18775 82.2079 4.09902 77.3843 3.22614C72.5608 2.35327 60.0404 5.46035 54.3831 7.123C50.8845 8.68173 41.9222 12.1109 34.0616 13.3579C26.201 14.6049 16.4944 18.2418 12.6236 19.9044Z" fill="#5E5C5C"/>
<path d="M182.118 21.6969L188.371 27.0745H6.37085C12.2663 20.902 25.5013 18.7354 31.3819 18.4236C34.8805 18.7354 43.3515 18.8445 49.2469 16.787C56.6162 14.2152 72.6948 16.787 79.1709 16.787C84.3517 16.787 94.8772 13.6696 99.4923 12.1109C103.438 11.4094 112.534 9.84288 117.357 9.18822C122.181 8.53356 134.701 10.8639 140.359 12.1109C143.857 13.2799 152.819 15.8518 160.68 16.787C168.541 17.7223 178.247 20.45 182.118 21.6969Z" fill="#7D7D7D"/>
<path d="M0.37085 130.074L58.8254 192.074H128.825L188.371 130.074V25.2883H0.37085V130.074Z" fill="#B3B9B9"/>
</svg>
