<svg width="615" height="717" viewBox="0 0 615 717" fill="none" xmlns="http://www.w3.org/2000/svg">
<rect x="485.769" y="138.137" width="9" height="147.941" fill="#677272"/>
<rect x="488.769" y="135.097" width="3" height="150.526" fill="white"/>
<path d="M41.6382 132.574C41.6382 129.536 44.1006 127.074 47.1382 127.074L53.6382 127.074L53.6382 136.074L41.6382 136.074L41.6382 132.574Z" fill="#677272"/>
<path d="M44.6362 133.075C44.6362 131.418 45.9794 130.075 47.6362 130.075L53.6362 130.075L53.6362 133.075L44.6362 133.075Z" fill="white"/>
<rect x="52.6382" y="127.074" width="28.1875" height="9" fill="#677272"/>
<rect x="52.6382" y="130.074" width="28.1875" height="3" fill="white"/>
<rect width="9" height="191.021" transform="matrix(-1 0 0 1 50.6382 136.055)" fill="#677272"/>
<rect width="3" height="194.642" transform="matrix(-1 0 0 1 47.6382 132.435)" fill="white"/>
<rect width="388" height="9" transform="matrix(1 0 0 -1 52.8257 716.076)" fill="#677272"/>
<rect width="388" height="3" transform="matrix(1 0 0 -1 52.8257 713.076)" fill="white"/>
<path d="M41.8257 710.576C41.8257 713.613 44.2881 716.076 47.3257 716.076H53.8257V707.076H41.8257V710.576Z" fill="#677272"/>
<path d="M44.8257 710.076C44.8257 711.732 46.1688 713.076 47.8257 713.076H53.8257V710.076H44.8257Z" fill="white"/>
<rect x="50.8257" y="707.985" width="9" height="218.91" transform="rotate(180 50.8257 707.985)" fill="#677272"/>
<rect x="47.8257" y="711.576" width="3" height="224.001" transform="rotate(180 47.8257 711.576)" fill="white"/>
<path d="M450.826 709.903C450.826 713.313 448.062 716.077 444.652 716.077H438.826V705.974H450.826V709.903Z" fill="#677272"/>
<path d="M447.826 709.342C447.826 711.202 446.318 712.709 444.458 712.709H438.826V709.342H447.826Z" fill="white"/>
<rect width="9" height="270.665" transform="matrix(1 0 0 -1 441.826 706.742)" fill="#677272"/>
<rect width="3" height="275.078" transform="matrix(1 0 0 -1 444.826 711.155)" fill="white"/>
<rect x="312.797" y="127.074" width="104.108" height="9" fill="#677272"/>
<rect x="312.797" y="130.074" width="104.108" height="3" fill="white"/>
<rect x="494.814" y="255.074" width="9" height="68.5115" transform="rotate(-90 494.814 255.074)" fill="#677272"/>
<rect x="488.769" y="252.073" width="3" height="74.5566" transform="rotate(-90 488.769 252.073)" fill="white"/>
<rect x="451.263" y="52.3618" width="9" height="43.0708" transform="rotate(180 451.263 52.3618)" fill="#677272"/>
<rect x="448.263" y="52.3618" width="3" height="43.0708" transform="rotate(180 448.263 52.3618)" fill="white"/>
<rect x="451.263" y="37.2915" width="48" height="9" transform="rotate(90 451.263 37.2915)" fill="#677272"/>
<rect x="448.263" y="37.2915" width="48" height="3" transform="rotate(90 448.263 37.2915)" fill="white"/>
<path d="M446.763 93.1562L438.536 78.9062L454.99 78.9062L446.763 93.1562Z" fill="#677272"/>
<path fill-rule="evenodd" clip-rule="evenodd" d="M441.432 9.34113C440.241 9.4003 439.561 9.82242 439.342 10.1037C438.833 10.7576 437.891 10.8754 437.237 10.3668C436.583 9.85822 436.465 8.9158 436.974 8.26188C437.922 7.04316 439.591 6.42886 441.283 6.34483C443.036 6.25775 445.049 6.7148 446.956 7.91255C450.461 10.1143 452.783 9.0341 453.537 8.18625C454.087 7.56707 455.035 7.5113 455.654 8.06168C456.274 8.61206 456.329 9.56017 455.779 10.1793C453.866 12.3315 449.854 13.2758 445.36 10.453C443.967 9.57795 442.562 9.285 441.432 9.34113Z" fill="#677272"/>
<path d="M454.053 74.9905L458.086 68.1269L462.118 74.9905H454.053Z" stroke="#677272" stroke-width="2.5"/>
<path d="M462.117 60.5446L458.085 67.4082L454.053 60.5446L462.117 60.5446Z" stroke="#677272" stroke-width="2.5"/>
<rect x="416.908" y="24.3617" width="60" height="29" rx="4" fill="#414F4F"/>
<path d="M428.401 38.5017H423.946V40.2117H428.401V38.5017ZM432.201 33.0117C431.061 33.0117 429.981 33.3867 428.811 34.2117L429.711 35.6667C430.566 35.0517 431.361 34.7367 432.021 34.7367C432.801 34.7367 433.266 35.1717 433.266 35.9067C433.266 36.4617 433.011 37.0167 432.336 37.8867L428.151 43.2567L428.196 43.3617H434.646L435.621 41.6667L435.606 41.6367H432.861C432.156 41.6367 431.721 41.6967 431.406 41.8017L431.376 41.7567C431.646 41.5317 431.961 41.2167 432.276 40.7967L433.806 38.8017C434.796 37.5417 435.171 36.6717 435.171 35.6667C435.171 34.0017 434.076 33.0117 432.201 33.0117ZM439.279 33.0117C438.169 33.0117 437.014 33.3417 436.084 33.9117L436.834 35.4117C437.614 34.9317 438.364 34.6917 438.994 34.6917C439.864 34.6917 440.359 35.0967 440.359 35.7867C440.359 36.6417 439.549 37.1067 438.019 37.1067V38.7417C440.074 38.7417 440.899 39.1767 440.899 40.3017C440.899 41.2767 440.209 41.8617 439.009 41.8617C438.229 41.8617 437.449 41.6367 436.624 41.1717L435.979 42.8667C436.834 43.3167 437.959 43.5867 439.009 43.5867C441.364 43.5867 442.759 42.4017 442.759 40.4367C442.759 39.1167 442.069 38.2167 440.824 37.8867C440.569 37.8117 440.329 37.7817 439.954 37.7817V37.7217C440.299 37.6917 440.584 37.6317 440.824 37.5417C441.694 37.2267 442.204 36.4317 442.204 35.4117C442.204 33.8817 441.139 33.0117 439.279 33.0117ZM446.53 33.0117C445.42 33.0117 444.265 33.3417 443.335 33.9117L444.085 35.4117C444.865 34.9317 445.615 34.6917 446.245 34.6917C447.115 34.6917 447.61 35.0967 447.61 35.7867C447.61 36.6417 446.8 37.1067 445.27 37.1067V38.7417C447.325 38.7417 448.15 39.1767 448.15 40.3017C448.15 41.2767 447.46 41.8617 446.26 41.8617C445.48 41.8617 444.7 41.6367 443.875 41.1717L443.23 42.8667C444.085 43.3167 445.21 43.5867 446.26 43.5867C448.615 43.5867 450.01 42.4017 450.01 40.4367C450.01 39.1167 449.32 38.2167 448.075 37.8867C447.82 37.8117 447.58 37.7817 447.205 37.7817V37.7217C447.55 37.6917 447.835 37.6317 448.075 37.5417C448.945 37.2267 449.455 36.4317 449.455 35.4117C449.455 33.8817 448.39 33.0117 446.53 33.0117ZM457.378 33.0117C456.148 33.0117 455.263 33.8667 455.263 35.1267C455.263 36.3717 456.148 37.2267 457.378 37.2267C458.578 37.2267 459.478 36.3717 459.478 35.1267C459.478 33.8667 458.578 33.0117 457.378 33.0117ZM457.378 33.8367C458.083 33.8367 458.638 34.3467 458.638 35.1267C458.638 35.8917 458.083 36.4017 457.378 36.4017C456.673 36.4017 456.103 35.8917 456.103 35.1267C456.103 34.3467 456.673 33.8367 457.378 33.8367ZM466.236 43.5867C464.566 43.5867 463.216 43.0867 462.186 42.0867C461.166 41.0767 460.656 39.7517 460.656 38.1117C460.656 36.4717 461.166 35.1517 462.186 34.1517C463.216 33.1417 464.566 32.6367 466.236 32.6367C467.576 32.6367 468.791 33.0367 469.881 33.8367L469.371 34.5417C468.391 33.8217 467.341 33.4617 466.221 33.4617C464.831 33.4617 463.701 33.8967 462.831 34.7667C461.971 35.6267 461.541 36.7417 461.541 38.1117C461.541 39.4817 461.971 40.6017 462.831 41.4717C463.701 42.3317 464.831 42.7617 466.221 42.7617C467.341 42.7617 468.391 42.4017 469.371 41.6817L469.881 42.3867C468.791 43.1867 467.576 43.5867 466.236 43.5867Z" fill="white"/>
<rect x="535.326" y="61.3164" width="9" height="49.2218" transform="rotate(180 535.326 61.3164)" fill="#677272"/>
<rect x="532.326" y="61.3165" width="3" height="49.2219" transform="rotate(180 532.326 61.3165)" fill="white"/>
<rect x="526.326" y="86.0102" width="54.4109" height="9" transform="rotate(-90 526.326 86.0102)" fill="#677272"/>
<rect x="529.326" y="86.0103" width="54.4109" height="3" transform="rotate(-90 529.326 86.0103)" fill="white"/>
<path d="M530.826 0.374756L539.053 14.6248L522.598 14.6248L530.826 0.374756Z" fill="#677272"/>
<path d="M538.471 75.0928L542.504 68.2292L546.536 75.0928H538.471Z" stroke="#677272" stroke-width="2.5"/>
<path d="M546.535 60.6469L542.503 67.5105L538.471 60.6469L546.535 60.6469Z" stroke="#677272" stroke-width="2.5"/>
<circle cx="531.369" cy="85.6562" r="6.5" fill="white" stroke="#677272" stroke-width="2"/>
<circle cx="531.369" cy="85.6562" r="2.5" fill="#677272" stroke="#677272" stroke-width="2"/>
<rect x="501.326" y="25.5996" width="60" height="29" rx="4" fill="#414F4F"/>
<path d="M512.819 39.7396H508.364V41.4496H512.819V39.7396ZM516.619 34.2496C515.479 34.2496 514.399 34.6246 513.229 35.4496L514.129 36.9046C514.984 36.2896 515.779 35.9746 516.439 35.9746C517.219 35.9746 517.684 36.4096 517.684 37.1446C517.684 37.6996 517.429 38.2546 516.754 39.1246L512.569 44.4946L512.614 44.5996H519.064L520.039 42.9046L520.024 42.8746H517.279C516.574 42.8746 516.139 42.9346 515.824 43.0396L515.794 42.9946C516.064 42.7696 516.379 42.4546 516.694 42.0346L518.224 40.0396C519.214 38.7796 519.589 37.9096 519.589 36.9046C519.589 35.2396 518.494 34.2496 516.619 34.2496ZM523.697 34.2496C522.587 34.2496 521.432 34.5796 520.502 35.1496L521.252 36.6496C522.032 36.1696 522.782 35.9296 523.412 35.9296C524.282 35.9296 524.777 36.3346 524.777 37.0246C524.777 37.8796 523.967 38.3446 522.437 38.3446V39.9796C524.492 39.9796 525.317 40.4146 525.317 41.5396C525.317 42.5146 524.627 43.0996 523.427 43.0996C522.647 43.0996 521.867 42.8746 521.042 42.4096L520.397 44.1046C521.252 44.5546 522.377 44.8246 523.427 44.8246C525.782 44.8246 527.177 43.6396 527.177 41.6746C527.177 40.3546 526.487 39.4546 525.242 39.1246C524.987 39.0496 524.747 39.0196 524.372 39.0196V38.9596C524.717 38.9296 525.002 38.8696 525.242 38.7796C526.112 38.4646 526.622 37.6696 526.622 36.6496C526.622 35.1196 525.557 34.2496 523.697 34.2496ZM530.948 34.2496C529.838 34.2496 528.683 34.5796 527.753 35.1496L528.503 36.6496C529.283 36.1696 530.033 35.9296 530.663 35.9296C531.533 35.9296 532.028 36.3346 532.028 37.0246C532.028 37.8796 531.218 38.3446 529.688 38.3446V39.9796C531.743 39.9796 532.568 40.4146 532.568 41.5396C532.568 42.5146 531.878 43.0996 530.678 43.0996C529.898 43.0996 529.118 42.8746 528.293 42.4096L527.648 44.1046C528.503 44.5546 529.628 44.8246 530.678 44.8246C533.033 44.8246 534.428 43.6396 534.428 41.6746C534.428 40.3546 533.738 39.4546 532.493 39.1246C532.238 39.0496 531.998 39.0196 531.623 39.0196V38.9596C531.968 38.9296 532.253 38.8696 532.493 38.7796C533.363 38.4646 533.873 37.6696 533.873 36.6496C533.873 35.1196 532.808 34.2496 530.948 34.2496ZM541.796 34.2496C540.566 34.2496 539.681 35.1046 539.681 36.3646C539.681 37.6096 540.566 38.4646 541.796 38.4646C542.996 38.4646 543.896 37.6096 543.896 36.3646C543.896 35.1046 542.996 34.2496 541.796 34.2496ZM541.796 35.0746C542.501 35.0746 543.056 35.5846 543.056 36.3646C543.056 37.1296 542.501 37.6396 541.796 37.6396C541.091 37.6396 540.521 37.1296 540.521 36.3646C540.521 35.5846 541.091 35.0746 541.796 35.0746ZM550.654 44.8246C548.984 44.8246 547.634 44.3246 546.604 43.3246C545.584 42.3146 545.074 40.9896 545.074 39.3496C545.074 37.7096 545.584 36.3896 546.604 35.3896C547.634 34.3796 548.984 33.8746 550.654 33.8746C551.994 33.8746 553.209 34.2746 554.299 35.0746L553.789 35.7796C552.809 35.0596 551.759 34.6996 550.639 34.6996C549.249 34.6996 548.119 35.1346 547.249 36.0046C546.389 36.8646 545.959 37.9796 545.959 39.3496C545.959 40.7196 546.389 41.8396 547.249 42.7096C548.119 43.5696 549.249 43.9996 550.639 43.9996C551.759 43.9996 552.809 43.6396 553.789 42.9196L554.299 43.6246C553.209 44.4246 551.994 44.8246 550.654 44.8246Z" fill="white"/>
<rect x="9.82593" y="528.62" width="9" height="62.5455" transform="rotate(180 9.82593 528.62)" fill="#677272"/>
<rect x="6.82593" y="531.074" width="3" height="64" transform="rotate(180 6.82593 531.074)" fill="white"/>
<rect x="91.8257" y="528.62" width="9" height="62.5455" transform="rotate(180 91.8257 528.62)" fill="#677272"/>
<rect x="88.8257" y="531.074" width="3" height="64" transform="rotate(180 88.8257 531.074)" fill="white"/>
<rect x="9.82593" y="345.62" width="9" height="62.5455" transform="rotate(180 9.82593 345.62)" fill="#677272"/>
<rect x="6.82593" y="345.074" width="3" height="64" transform="rotate(180 6.82593 345.074)" fill="white"/>
<rect x="91.8257" y="345.62" width="9" height="62.5455" transform="rotate(180 91.8257 345.62)" fill="#677272"/>
<rect x="88.8257" y="345.074" width="3" height="64" transform="rotate(180 88.8257 345.074)" fill="white"/>
<rect x="614.326" y="521.617" width="9" height="131.54" transform="rotate(180 614.326 521.617)" fill="#677272"/>
<rect x="611.326" y="521.62" width="3" height="130.392" transform="rotate(180 611.326 521.62)" fill="white"/>
<rect x="284.326" y="542.074" width="9" height="151.999" transform="rotate(180 284.326 542.074)" fill="#677272"/>
<rect x="281.326" y="542.077" width="3" height="150.673" transform="rotate(180 281.326 542.077)" fill="white"/>
</svg>
