<svg width="80" height="13" viewBox="0 0 80 13" fill="none" xmlns="http://www.w3.org/2000/svg">
<g clip-path="url(#clip0_371_17764)">
<rect width="79" height="12" transform="matrix(-1 0 0 1 79.8259 0.0744629)" fill="#F5F5F5"/>
<line y1="-1" x2="103.101" y2="-1" transform="matrix(-0.814647 0.579958 0.368052 0.929805 145.434 -56.9155)" stroke="#B3B9B9" stroke-width="2"/>
<line y1="-1" x2="103.101" y2="-1" transform="matrix(-0.814647 0.579958 0.368052 0.929805 61.4343 -56.9155)" stroke="#B3B9B9" stroke-width="2"/>
<line y1="-1" x2="103.101" y2="-1" transform="matrix(-0.814647 0.579958 0.368052 0.929805 145.434 -52.312)" stroke="#B3B9B9" stroke-width="2"/>
<line y1="-1" x2="103.101" y2="-1" transform="matrix(-0.814647 0.579958 0.368052 0.929805 61.4343 -52.312)" stroke="#B3B9B9" stroke-width="2"/>
<line y1="-1" x2="103.101" y2="-1" transform="matrix(-0.814647 0.579958 0.368052 0.929805 145.434 -47.7085)" stroke="#B3B9B9" stroke-width="2"/>
<line y1="-1" x2="103.101" y2="-1" transform="matrix(-0.814647 0.579958 0.368052 0.929805 61.4343 -47.7085)" stroke="#B3B9B9" stroke-width="2"/>
<line y1="-1" x2="103.101" y2="-1" transform="matrix(-0.814647 0.579958 0.368052 0.929805 145.434 -43.105)" stroke="#B3B9B9" stroke-width="2"/>
<line y1="-1" x2="103.101" y2="-1" transform="matrix(-0.814647 0.579958 0.368052 0.929805 61.4343 -43.105)" stroke="#B3B9B9" stroke-width="2"/>
<line y1="-1" x2="103.101" y2="-1" transform="matrix(-0.814647 0.579958 0.368052 0.929805 145.434 -38.5005)" stroke="#B3B9B9" stroke-width="2"/>
<line y1="-1" x2="103.101" y2="-1" transform="matrix(-0.814647 0.579958 0.368052 0.929805 61.4343 -38.5005)" stroke="#B3B9B9" stroke-width="2"/>
<line y1="-1" x2="103.101" y2="-1" transform="matrix(-0.814647 0.579958 0.368052 0.929805 145.434 12.1411)" stroke="#B3B9B9" stroke-width="2"/>
<line y1="-1" x2="103.101" y2="-1" transform="matrix(-0.814647 0.579958 0.368052 0.929805 61.4343 12.1411)" stroke="#B3B9B9" stroke-width="2"/>
<line y1="-1" x2="103.101" y2="-1" transform="matrix(-0.814647 0.579958 0.368052 0.929805 145.434 -33.897)" stroke="#B3B9B9" stroke-width="2"/>
<line y1="-1" x2="103.101" y2="-1" transform="matrix(-0.814647 0.579958 0.368052 0.929805 61.4343 -33.897)" stroke="#B3B9B9" stroke-width="2"/>
<line y1="-1" x2="103.101" y2="-1" transform="matrix(-0.814647 0.579958 0.368052 0.929805 145.434 -29.2925)" stroke="#B3B9B9" stroke-width="2"/>
<line y1="-1" x2="103.101" y2="-1" transform="matrix(-0.814647 0.579958 0.368052 0.929805 61.4343 -29.2925)" stroke="#B3B9B9" stroke-width="2"/>
<line y1="-1" x2="103.101" y2="-1" transform="matrix(-0.814647 0.579958 0.368052 0.929805 145.434 -24.689)" stroke="#B3B9B9" stroke-width="2"/>
<line y1="-1" x2="103.101" y2="-1" transform="matrix(-0.814647 0.579958 0.368052 0.929805 61.4343 -24.689)" stroke="#B3B9B9" stroke-width="2"/>
<line y1="-1" x2="103.101" y2="-1" transform="matrix(-0.814647 0.579958 0.368052 0.929805 145.434 -20.0854)" stroke="#B3B9B9" stroke-width="2"/>
<line y1="-1" x2="103.101" y2="-1" transform="matrix(-0.814647 0.579958 0.368052 0.929805 61.4343 -20.0854)" stroke="#B3B9B9" stroke-width="2"/>
<line y1="-1" x2="103.101" y2="-1" transform="matrix(-0.814647 0.579958 0.368052 0.929805 145.434 -15.4819)" stroke="#B3B9B9" stroke-width="2"/>
<line y1="-1" x2="103.101" y2="-1" transform="matrix(-0.814647 0.579958 0.368052 0.929805 61.4343 -15.4819)" stroke="#B3B9B9" stroke-width="2"/>
<line y1="-1" x2="103.101" y2="-1" transform="matrix(-0.814647 0.579958 0.368052 0.929805 145.434 -10.8784)" stroke="#B3B9B9" stroke-width="2"/>
<line y1="-1" x2="103.101" y2="-1" transform="matrix(-0.814647 0.579958 0.368052 0.929805 61.4343 -10.8784)" stroke="#B3B9B9" stroke-width="2"/>
<line y1="-1" x2="103.101" y2="-1" transform="matrix(-0.814647 0.579958 0.368052 0.929805 145.434 -6.27393)" stroke="#B3B9B9" stroke-width="2"/>
<line y1="-1" x2="103.101" y2="-1" transform="matrix(-0.814647 0.579958 0.368052 0.929805 61.4343 -6.27393)" stroke="#B3B9B9" stroke-width="2"/>
<line y1="-1" x2="103.101" y2="-1" transform="matrix(-0.814647 0.579958 0.368052 0.929805 145.434 -1.67041)" stroke="#B3B9B9" stroke-width="2"/>
<line y1="-1" x2="103.101" y2="-1" transform="matrix(-0.814647 0.579958 0.368052 0.929805 61.4343 -1.67041)" stroke="#B3B9B9" stroke-width="2"/>
<line y1="-1" x2="103.101" y2="-1" transform="matrix(-0.814647 0.579958 0.368052 0.929805 145.434 2.93408)" stroke="#B3B9B9" stroke-width="2"/>
<line y1="-1" x2="103.101" y2="-1" transform="matrix(-0.814647 0.579958 0.368052 0.929805 61.4343 2.93408)" stroke="#B3B9B9" stroke-width="2"/>
<line y1="-1" x2="103.101" y2="-1" transform="matrix(-0.814647 0.579958 0.368052 0.929805 145.434 7.5376)" stroke="#B3B9B9" stroke-width="2"/>
<line y1="-1" x2="103.101" y2="-1" transform="matrix(-0.814647 0.579958 0.368052 0.929805 61.4343 7.5376)" stroke="#B3B9B9" stroke-width="2"/>
</g>
<defs>
<clipPath id="clip0_371_17764">
<rect width="79" height="12" fill="white" transform="matrix(-1 0 0 1 79.8259 0.0744629)"/>
</clipPath>
</defs>
</svg>
