<svg width="61" height="52" viewBox="0 0 61 52" fill="none" xmlns="http://www.w3.org/2000/svg">
<rect y="0.524902" width="61" height="51" rx="4.54549" fill="#677272"/>
<path d="M3.5 2.5249L4.145 2.90773L4.79904 3.2749L4.79 4.0249L4.79904 4.7749L4.145 5.14208L3.5 5.5249L2.855 5.14208L2.20096 4.7749L2.21 4.0249L2.20096 3.2749L2.855 2.90773L3.5 2.5249Z" fill="#8D9595"/>
<path d="M3.5 46.55L4.145 46.9329L4.79904 47.3L4.79 48.05L4.79904 48.8L4.145 49.1672L3.5 49.55L2.855 49.1672L2.20096 48.8L2.21 48.05L2.20096 47.3L2.855 46.9329L3.5 46.55Z" fill="#8D9595"/>
<path d="M3.5 24.0376L4.145 24.4204L4.79904 24.7876L4.79 25.5376L4.79904 26.2876L4.145 26.6548L3.5 27.0376L2.855 26.6548L2.20096 26.2876L2.21 25.5376L2.20096 24.7876L2.855 24.4204L3.5 24.0376Z" fill="#8D9595"/>
<path d="M57.5 2.5249L58.145 2.90773L58.799 3.2749L58.79 4.0249L58.799 4.7749L58.145 5.14208L57.5 5.5249L56.855 5.14208L56.201 4.7749L56.21 4.0249L56.201 3.2749L56.855 2.90773L57.5 2.5249Z" fill="#8D9595"/>
<path d="M57.5 46.55L58.145 46.9329L58.799 47.3L58.79 48.05L58.799 48.8L58.145 49.1672L57.5 49.55L56.855 49.1672L56.201 48.8L56.21 48.05L56.201 47.3L56.855 46.9329L57.5 46.55Z" fill="#8D9595"/>
<path d="M57.5 24.0376L58.145 24.4204L58.799 24.7876L58.79 25.5376L58.799 26.2876L58.145 26.6548L57.5 27.0376L56.855 26.6548L56.201 26.2876L56.21 25.5376L56.201 24.7876L56.855 24.4204L57.5 24.0376Z" fill="#8D9595"/>
<path d="M30.8273 2.5249L31.4723 2.90773L32.1263 3.2749L32.1173 4.0249L32.1263 4.7749L31.4723 5.14208L30.8273 5.5249L30.1823 5.14208L29.5282 4.7749L29.5373 4.0249L29.5282 3.2749L30.1823 2.90773L30.8273 2.5249Z" fill="#8D9595"/>
<path d="M30.8271 46.55L31.4721 46.9329L32.1262 47.3L32.1171 48.05L32.1262 48.8L31.4721 49.1672L30.8271 49.55L30.1821 49.1672L29.5281 48.8L29.5371 48.05L29.5281 47.3L30.1821 46.9329L30.8271 46.55Z" fill="#8D9595"/>
<mask id="path-10-inside-1_392_14039" fill="white">
<rect x="7.99994" y="8.52496" width="21" height="16" rx="0.757583"/>
</mask>
<rect x="7.99994" y="8.52496" width="21" height="16" rx="0.757583" fill="#414F4F" stroke="#8D9595" stroke-width="2" mask="url(#path-10-inside-1_392_14039)"/>
<mask id="path-11-inside-2_392_14039" fill="white">
<rect x="7.99994" y="27.525" width="21" height="16" rx="0.757583"/>
</mask>
<rect x="7.99994" y="27.525" width="21" height="16" rx="0.757583" fill="#414F4F" stroke="#8D9595" stroke-width="2" mask="url(#path-11-inside-2_392_14039)"/>
<mask id="path-12-inside-3_392_14039" fill="white">
<rect x="31.9999" y="8.52496" width="21" height="16" rx="0.757583"/>
</mask>
<rect x="31.9999" y="8.52496" width="21" height="16" rx="0.757583" fill="#414F4F" stroke="#8D9595" stroke-width="2" mask="url(#path-12-inside-3_392_14039)"/>
<mask id="path-13-inside-4_392_14039" fill="white">
<rect x="31.9999" y="27.525" width="21" height="16" rx="0.757583"/>
</mask>
<rect x="31.9999" y="27.525" width="21" height="16" rx="0.757583" fill="#414F4F" stroke="#8D9595" stroke-width="2" mask="url(#path-13-inside-4_392_14039)"/>
</svg>
