<svg width="19" height="29" viewBox="0 0 19 29" fill="none" xmlns="http://www.w3.org/2000/svg">
<rect y="0.524841" width="16" height="28" rx="2.27275" fill="#677272"/>
<path d="M2.5 1.81976L3.145 2.20259L3.79904 2.56976L3.79 3.31976L3.79904 4.06976L3.145 4.43694L2.5 4.81976L1.855 4.43694L1.20096 4.06976L1.21 3.31976L1.20096 2.56976L1.855 2.20259L2.5 1.81976Z" fill="#8D9595"/>
<path d="M2.5 24.7774L3.145 25.1602L3.79904 25.5274L3.79 26.2774L3.79904 27.0274L3.145 27.3946L2.5 27.7774L1.855 27.3946L1.20096 27.0274L1.21 26.2774L1.20096 25.5274L1.855 25.1602L2.5 24.7774Z" fill="#8D9595"/>
<path d="M13.5 1.7774L14.145 2.16023L14.799 2.5274L14.79 3.2774L14.799 4.0274L14.145 4.39458L13.5 4.7774L12.855 4.39458L12.201 4.0274L12.21 3.2774L12.201 2.5274L12.855 2.16023L13.5 1.7774Z" fill="#8D9595"/>
<path d="M13.5 24.7774L14.145 25.1602L14.799 25.5274L14.79 26.2774L14.799 27.0274L14.145 27.3946L13.5 27.7774L12.855 27.3946L12.201 27.0274L12.21 26.2774L12.201 25.5274L12.855 25.1602L13.5 24.7774Z" fill="#8D9595"/>
<path d="M4.00006 10.5248H19.0001V20.5248H4.00006V10.5248Z" fill="#3B4848"/>
<mask id="path-7-inside-1_392_14057" fill="white">
<rect x="3.00006" y="5.52484" width="10" height="18" rx="0.757583"/>
</mask>
<rect x="3.00006" y="5.52484" width="10" height="18" rx="0.757583" fill="#414F4F" stroke="#8D9595" stroke-width="2" mask="url(#path-7-inside-1_392_14057)"/>
</svg>
