<svg width="26" height="29" viewBox="0 0 26 29" fill="none" xmlns="http://www.w3.org/2000/svg">
<rect x="2" y="0.524902" width="16" height="28" rx="2.27275" fill="#677272"/>
<path d="M4.5 1.81982L5.145 2.20265L5.79904 2.56982L5.79 3.31982L5.79904 4.06982L5.145 4.437L4.5 4.81982L3.855 4.437L3.20096 4.06982L3.21 3.31982L3.20096 2.56982L3.855 2.20265L4.5 1.81982Z" fill="#8D9595"/>
<path d="M4.5 24.7775L5.145 25.1603L5.79904 25.5275L5.79 26.2775L5.79904 27.0275L5.145 27.3946L4.5 27.7775L3.855 27.3946L3.20096 27.0275L3.21 26.2775L3.20096 25.5275L3.855 25.1603L4.5 24.7775Z" fill="#8D9595"/>
<path d="M15.5 1.77747L16.145 2.16029L16.799 2.52747L16.79 3.27747L16.799 4.02747L16.145 4.39464L15.5 4.77747L14.855 4.39464L14.201 4.02747L14.21 3.27747L14.201 2.52747L14.855 2.16029L15.5 1.77747Z" fill="#8D9595"/>
<path d="M15.5 24.7775L16.145 25.1603L16.799 25.5275L16.79 26.2775L16.799 27.0275L16.145 27.3946L15.5 27.7775L14.855 27.3946L14.201 27.0275L14.21 26.2775L14.201 25.5275L14.855 25.1603L15.5 24.7775Z" fill="#8D9595"/>
<path d="M0 10.5249H26V20.5249H0V10.5249Z" fill="#3B4848"/>
<mask id="path-7-inside-1_392_14069" fill="white">
<rect x="5" y="5.5249" width="10" height="18" rx="0.757583"/>
</mask>
<rect x="5" y="5.5249" width="10" height="18" rx="0.757583" fill="#414F4F" stroke="#8D9595" stroke-width="2" mask="url(#path-7-inside-1_392_14069)"/>
</svg>
