<svg width="27" height="29" viewBox="0 0 27 29" fill="none" xmlns="http://www.w3.org/2000/svg">
<rect x="10.0001" y="0.524902" width="16" height="28" rx="2.27275" fill="#677272"/>
<path d="M12.5001 1.81982L13.1451 2.20265L13.7991 2.56982L13.7901 3.31982L13.7991 4.06982L13.1451 4.437L12.5001 4.81982L11.8551 4.437L11.201 4.06982L11.2101 3.31982L11.201 2.56982L11.8551 2.20265L12.5001 1.81982Z" fill="#8D9595"/>
<path d="M12.5001 24.7775L13.1451 25.1603L13.7991 25.5275L13.7901 26.2775L13.7991 27.0275L13.1451 27.3946L12.5001 27.7775L11.8551 27.3946L11.201 27.0275L11.2101 26.2775L11.201 25.5275L11.8551 25.1603L12.5001 24.7775Z" fill="#8D9595"/>
<path d="M23.5001 1.77747L24.1451 2.16029L24.7991 2.52747L24.7901 3.27747L24.7991 4.02747L24.1451 4.39464L23.5001 4.77747L22.8551 4.39464L22.201 4.02747L22.2101 3.27747L22.201 2.52747L22.8551 2.16029L23.5001 1.77747Z" fill="#8D9595"/>
<path d="M23.5001 24.7775L24.1451 25.1603L24.7991 25.5275L24.7901 26.2775L24.7991 27.0275L24.1451 27.3946L23.5001 27.7775L22.8551 27.3946L22.201 27.0275L22.2101 26.2775L22.201 25.5275L22.8551 25.1603L23.5001 24.7775Z" fill="#8D9595"/>
<path d="M0.000183105 10.5249H27.0002V20.5249H0.000183105V10.5249Z" fill="#3B4848"/>
<mask id="path-7-inside-1_392_14081" fill="white">
<rect x="12.9999" y="5.5249" width="10" height="18" rx="0.757583"/>
</mask>
<rect x="12.9999" y="5.5249" width="10" height="18" rx="0.757583" fill="#414F4F" stroke="#8D9595" stroke-width="2" mask="url(#path-7-inside-1_392_14081)"/>
</svg>
