<svg width="19" height="29" viewBox="0 0 19 29" fill="none" xmlns="http://www.w3.org/2000/svg">
<rect x="3.00006" y="0.524902" width="16" height="28" rx="2.27275" fill="#677272"/>
<path d="M5.50006 1.81982L6.14506 2.20265L6.7991 2.56982L6.79006 3.31982L6.7991 4.06982L6.14506 4.437L5.50006 4.81982L4.85506 4.437L4.20102 4.06982L4.21006 3.31982L4.20102 2.56982L4.85506 2.20265L5.50006 1.81982Z" fill="#8D9595"/>
<path d="M5.50006 24.7775L6.14506 25.1603L6.7991 25.5275L6.79006 26.2775L6.7991 27.0275L6.14506 27.3946L5.50006 27.7775L4.85506 27.3946L4.20102 27.0275L4.21006 26.2775L4.20102 25.5275L4.85506 25.1603L5.50006 24.7775Z" fill="#8D9595"/>
<path d="M16.5001 1.77747L17.1451 2.16029L17.7991 2.52747L17.7901 3.27747L17.7991 4.02747L17.1451 4.39464L16.5001 4.77747L15.8551 4.39464L15.201 4.02747L15.2101 3.27747L15.201 2.52747L15.8551 2.16029L16.5001 1.77747Z" fill="#8D9595"/>
<path d="M16.5001 24.7775L17.1451 25.1603L17.7991 25.5275L17.7901 26.2775L17.7991 27.0275L17.1451 27.3946L16.5001 27.7775L15.8551 27.3946L15.201 27.0275L15.2101 26.2775L15.201 25.5275L15.8551 25.1603L16.5001 24.7775Z" fill="#8D9595"/>
<path d="M6.10352e-05 10.5249H16.0001V20.5249H6.10352e-05V10.5249Z" fill="#3B4848"/>
<mask id="path-7-inside-1_392_14093" fill="white">
<rect x="6.00006" y="5.5249" width="10" height="18" rx="0.757583"/>
</mask>
<rect x="6.00006" y="5.5249" width="10" height="18" rx="0.757583" fill="#414F4F" stroke="#8D9595" stroke-width="2" mask="url(#path-7-inside-1_392_14093)"/>
</svg>
